<?xml version="1.0" standalone="no"?>
<!DOCTYPE svg PUBLIC "-//W3C//DTD SVG 20010904//EN"
 "http://www.w3.org/TR/2001/REC-SVG-20010904/DTD/svg10.dtd">
<svg version="1.0" xmlns="http://www.w3.org/2000/svg"
 width="348.000000pt" height="145.000000pt" viewBox="0 0 348.000000 145.000000"
 preserveAspectRatio="xMidYMid meet">

<g transform="translate(0.000000,145.000000) scale(0.100000,-0.100000)"
fill="#000000" stroke="none">
<path d="M956 1294 c-78 -19 -188 -72 -263 -128 -57 -42 -136 -137 -164 -198
-12 -28 -13 -28 -110 -28 -90 0 -99 -2 -113 -22 -30 -42 -22 -47 78 -50 l95
-3 -165 -349 c-90 -192 -164 -355 -164 -363 0 -16 34 -16 108 0 l54 12 182
350 182 350 122 3 122 3 15 28 c8 16 11 31 8 35 -4 3 -55 6 -115 6 -59 0 -108
3 -108 6 0 23 92 195 119 221 37 37 99 57 150 49 20 -3 63 -9 97 -12 58 -6 62
-5 82 21 28 35 28 50 0 69 -28 20 -130 20 -212 0z"/>
<path d="M2100 996 c-289 -64 -502 -244 -477 -403 8 -49 58 -98 121 -120 76
-26 254 -23 371 6 104 26 299 115 293 133 -11 32 -36 31 -119 -4 -126 -53
-172 -63 -296 -63 -98 0 -115 3 -140 21 -29 21 -39 57 -29 99 5 20 15 23 133
34 341 33 533 111 533 216 0 40 -24 62 -86 81 -57 17 -226 17 -304 0z m171
-56 c10 -6 19 -21 19 -33 0 -45 -85 -102 -196 -131 -58 -15 -226 -38 -232 -31
-8 7 72 85 121 119 105 72 232 106 288 76z"/>
<path d="M2940 996 c-264 -59 -465 -211 -478 -361 -3 -43 0 -61 17 -89 64
-102 311 -124 542 -46 97 32 229 95 229 109 0 5 -7 14 -16 22 -13 10 -21 10
-47 0 -194 -78 -218 -84 -344 -85 -108 -1 -124 1 -150 20 -29 22 -39 57 -29
99 5 21 14 23 93 30 277 22 492 85 552 161 26 34 27 85 2 108 -48 44 -242 60
-371 32z m171 -56 c45 -25 8 -86 -79 -130 -70 -34 -332 -83 -332 -60 0 4 26
32 58 61 55 52 154 112 211 129 38 12 119 12 142 0z"/>
<path d="M1208 981 c-62 -20 -174 -78 -227 -119 l-34 -25 22 -18 c21 -18 24
-17 84 16 67 37 140 54 151 36 8 -12 -7 -44 -122 -250 -99 -179 -99 -181 20
-181 l68 0 24 48 c68 134 216 300 303 343 39 19 64 24 131 24 82 0 84 1 113
33 35 39 37 75 7 96 -64 45 -203 -12 -361 -147 l-59 -50 37 73 c43 84 41 112
-6 129 -44 15 -84 13 -151 -8z"/>
</g>
</svg>
